<svg width="32" height="32" viewBox="0 0 32 32" fill="none" xmlns="http://www.w3.org/2000/svg">
  <path
    d="M19 1H16L15.1958 4.0156C14.2737 4.06201 13.4077 4.212 12.5981 4.46555C11.6071 4.76522 10.7479 5.19866 10.0205 5.76589C9.29302 6.33311 8.72372 7.01806 8.31256 7.82074C7.9014 8.62341 7.69581 9.51706 7.69581 10.5017C7.69581 11.3579 7.84868 12.1498 8.15442 12.8776C8.4707 13.6054 8.93457 14.2689 9.54605 14.8682C10.1575 15.4676 10.9429 16.0187 11.9023 16.5217C12.718 16.9447 13.6418 17.3148 14.6736 17.6318L13.4088 23.9561C13.1338 23.8284 12.8846 23.6727 12.6614 23.489C12.2608 23.1679 11.9498 22.7559 11.7284 22.2528C11.507 21.7498 11.3857 21.1451 11.3647 20.4388H7C7 21.6482 7.22667 22.7023 7.68 23.6013C8.14388 24.5003 8.77116 25.2816 9.56186 25.9452C10.3947 26.6194 11.3699 27.1331 12.4874 27.4863C12.5552 27.5069 12.623 27.5268 12.6908 27.5461L12 31H15L15.6008 27.996C15.7015 27.9987 15.8024 28 15.9033 28C17.0735 28 18.1541 27.8609 19.1451 27.5826C20.1361 27.2936 20.9901 26.8709 21.707 26.3144C22.4239 25.7686 22.9826 25.0997 23.3833 24.3077C23.7944 23.505 24 22.59 24 21.5625C24 20.3746 23.7312 19.3258 23.1935 18.4161C22.6558 17.5064 21.9336 16.709 21.027 16.0241C20.426 15.6067 19.7671 15.2375 19.0502 14.9164C18.3333 14.5953 17.5795 14.3224 16.7888 14.0977C16.37 13.9823 15.975 13.8617 15.6037 13.736L17.1895 7.78926C17.2689 7.81352 17.3462 7.84007 17.4214 7.8689C17.9064 8.04013 18.3122 8.28094 18.6391 8.5913C18.9553 8.91237 19.1926 9.29231 19.3507 9.7311C19.5194 10.1699 19.6143 10.6515 19.6353 11.1759H23.9684C23.9684 10.1271 23.7681 9.16388 23.3674 8.28629C22.9668 7.4087 22.4081 6.64883 21.6912 6.00669C20.9743 5.37525 20.115 4.88294 19.1135 4.52977C18.7978 4.41727 18.4715 4.32269 18.1344 4.24602L19 1ZM14.1828 7.81464L15.1958 4.0156C15.4025 4.0052 15.6119 4 15.8242 4C16.6432 4 17.4133 4.08201 18.1344 4.24602L17.1895 7.78926C16.7678 7.66041 16.2863 7.59599 15.7451 7.59599C15.1628 7.59599 14.642 7.66887 14.1828 7.81464ZM12.9627 12.39C13.0697 12.4811 13.1854 12.5687 13.3098 12.6528C13.7209 12.9418 14.2164 13.204 14.7963 13.4395C15.0516 13.5413 15.3208 13.6401 15.6037 13.736L15 16H12L12.9627 12.39ZM17.4769 18.6155C17.4276 18.5916 17.3775 18.5679 17.3265 18.5445C16.7783 18.2769 16.093 18.0308 15.2707 17.806C15.0678 17.7498 14.8688 17.6918 14.6736 17.6318L15 16H18L17.4769 18.6155ZM17.4769 18.6155C17.9672 18.8533 18.3704 19.1133 18.6865 19.3953C19.0239 19.7164 19.2611 20.0589 19.3981 20.4227C19.5457 20.7866 19.6195 21.1773 19.6195 21.5946C19.6195 22.012 19.5352 22.3973 19.3665 22.7505C19.1978 23.093 18.9553 23.3873 18.6391 23.6334C18.3228 23.8796 17.9327 24.0722 17.4688 24.2114C17.1248 24.3169 16.7414 24.3825 16.3184 24.4079L17.4769 18.6155ZM12.9627 12.39C12.7159 12.1801 12.5153 11.952 12.3609 11.7057C12.1501 11.3525 12.0447 10.9565 12.0447 10.5177C12.0447 10.1003 12.1237 9.71505 12.2819 9.36187C12.4505 8.99799 12.693 8.68227 13.0093 8.41472C13.3256 8.15786 13.7104 7.95987 14.1637 7.82074C14.1701 7.81869 14.1764 7.81666 14.1828 7.81464L12.9627 12.39ZM16.3184 24.4079C16.184 24.416 16.0456 24.4201 15.9033 24.4201C15.2391 24.4201 14.6276 24.3451 14.0688 24.1953C13.8344 24.1312 13.6143 24.0515 13.4088 23.9561L12.6908 27.5461C13.6531 27.8204 14.6231 27.9704 15.6008 27.996L16.3184 24.4079Z"
    fill="#47EB92" />
</svg>